<svg width="176" height="40" viewBox="0 0 176 40" fill="none" xmlns="http://www.w3.org/2000/svg">
<g clip-path="url(#clip0_27_746)">
<path d="M170.894 7.66415L175.068 11.8668C175.214 11.9829 175.322 12.1396 175.378 12.3171C175.463 13.3515 174.68 13.4081 173.88 13.4659C173.534 13.4909 173.185 13.5162 172.902 13.621C171.498 14.0009 170.246 14.8033 169.315 15.9193C168.383 17.0353 167.818 18.4109 167.695 19.8593C167.605 20.0266 167.469 20.1643 167.302 20.2558C167.136 20.3474 166.947 20.3888 166.757 20.3753C166.537 20.3558 166.331 20.2595 166.175 20.1032L164.805 18.7238C164.815 18.8182 164.815 18.9117 164.815 18.9869V19.8968C164.815 19.9543 164.817 20.0097 164.81 20.065C164.801 20.127 164.78 20.1888 164.731 20.2532V20.3377C164.731 20.3808 164.736 20.4209 164.741 20.4616C164.751 20.5449 164.762 20.6307 164.731 20.7505C164.701 20.8622 164.698 20.9925 164.694 21.1088C164.693 21.1779 164.691 21.2421 164.684 21.2945C164.674 21.3672 164.674 21.4448 164.668 21.5223C164.662 21.5949 164.65 21.6674 164.618 21.7354C164.574 21.8306 164.559 21.9215 164.555 22.0139C164.552 22.0581 164.552 22.1026 164.552 22.1482L164.496 22.439L162.367 32.5891L162.198 33.3489L162.132 34.4559L161.194 39.2495L161.044 40H85.1248L84.7589 39.6341L84.6932 39.9531H76.5694L72.0478 35.4034L72.4793 33.3489H69.9277L68.3424 31.7448C66.3749 33.1775 63.9934 33.9285 61.56 33.8837C58.9442 33.9866 56.3941 33.0488 54.4681 31.2758L52.0009 28.7899L51.4662 31.2851C51.4006 31.6416 51.3161 31.9794 51.2223 32.3077L51.1379 32.6173L50.9972 33.0675C50.9856 33.1066 50.9699 33.1444 50.9503 33.1801C50.8106 33.5937 50.6446 33.9979 50.4531 34.3902C50.4581 34.4054 50.4581 34.4219 50.4531 34.4371C50.4285 34.4891 50.4003 34.5392 50.3686 34.5872C50.227 34.8675 50.0705 35.1399 49.8996 35.4034C49.8679 35.4513 49.8397 35.5015 49.8152 35.5535L49.712 35.666C49.4827 35.9949 49.232 36.3082 48.9615 36.6041C48.8873 36.6783 48.8131 36.748 48.7377 36.8164C48.6607 36.8864 48.5825 36.9551 48.5018 37.0262L48.2955 37.2232C48.1654 37.3313 48.0323 37.4356 47.8964 37.5361C47.7843 37.619 47.6703 37.6992 47.5544 37.7767C45.6211 38.9222 43.391 39.4674 41.1473 39.3433C38.0516 39.3433 35.575 38.4427 34.0084 36.8668L29.5994 32.4296C27.8383 33.4262 25.8442 33.9377 23.8208 33.9118C21.2129 33.9925 18.6782 33.042 16.7664 31.2664L14.2993 28.7805L13.5019 32.6173L13.3424 33.3771H5.04036L0.5 28.7992L0.734521 27.6923L5.72515 3.72418L5.87521 2.97372H14.2054L14.4212 3.18013V2.97372H70.5469L70.7533 3.18013V2.97372H78.8771L83.4174 7.55158L83.1923 8.64913L82.9484 9.8499H85.2842L85.6501 10.2158C86.6779 9.61344 87.8453 9.29005 89.0366 9.27769C89.9126 9.26039 90.7825 9.42678 91.5903 9.76608C92.3982 10.1054 93.126 10.61 93.727 11.2476L93.605 11.1069L95.8095 13.3302C97.151 10.8068 100.162 9.27769 104.252 9.27769C107.423 9.27769 109.759 10.0844 111.175 11.5478L112.77 13.152L113.305 10.5722L113.464 9.82173H121.597L123.924 12.1576L124.252 10.5816L124.412 9.83112H140.416L140.847 10.2627C141.931 9.62306 143.172 9.29818 144.431 9.32458C145.188 9.29503 145.942 9.43365 146.64 9.73047C147.337 10.0273 147.96 10.475 148.464 11.0413C148.438 11.0118 148.413 10.9823 148.388 10.9533C148.343 10.8995 148.298 10.847 148.25 10.7984L149.065 11.6135C149.775 10.8782 150.629 10.2959 151.572 9.90235C152.516 9.50877 153.53 9.3121 154.552 9.32458C155.095 9.2912 155.637 9.3374 156.163 9.46033L155.275 8.56473C155.154 8.43528 155.072 8.27421 155.039 8.10021C155.006 7.92621 155.023 7.74631 155.087 7.58147C155.152 7.41657 155.262 7.27343 155.405 7.16854C155.548 7.06365 155.717 7.00129 155.894 6.98875H156.607C156.799 6.97043 156.99 6.94226 157.179 6.9043C158.176 6.69474 159.114 6.26624 159.925 5.6497C160.737 5.03323 161.401 4.24418 161.87 3.33959C161.911 3.26962 161.948 3.19765 161.982 3.12384V3.07695C162.305 2.38215 162.501 1.63581 162.564 0.872416C162.58 0.635203 162.687 0.413106 162.861 0.251186C163.035 0.0892079 163.264 -0.00056984 163.502 2.72188e-06H163.577C163.719 0.0135152 163.857 0.0594347 163.979 0.134211C164.101 0.209045 164.204 0.310732 164.281 0.431543C164.956 1.08821 168.708 4.90617 168.708 4.90617C169.021 5.24238 168.998 5.67885 168.974 6.12046C168.959 6.39352 168.944 6.66858 169.008 6.92308C169.179 6.95371 169.352 6.9769 169.524 6.99259C169.69 7.00753 169.856 7.01566 170.022 7.01687C170.216 7.02093 170.405 7.0854 170.561 7.2014C170.717 7.31735 170.834 7.4791 170.894 7.66415Z" fill="black"/>
<path d="M43.4362 10.7505H49.3649L46.0441 26.5009C45.4344 29.484 44.2711 31.1914 42.5075 32.4015C40.7237 33.4366 38.6754 33.9258 36.6164 33.8086C32.6952 33.8086 28.9334 32.167 28.5582 28.1801H34.5244C34.712 29.1182 35.5751 29.6529 36.8884 29.6529C38.6614 29.6529 39.4775 28.5835 39.8434 26.9043L40.1998 25.1688H40.0685C39.545 25.7443 38.91 26.2073 38.2021 26.5298C37.4941 26.8523 36.7281 27.0276 35.9503 27.045C32.4982 27.045 29.7589 24.2964 29.8152 20.272C29.8903 15.5816 32.9484 10.2533 38.0798 10.2533C39.0522 10.1878 40.023 10.4021 40.8775 10.8709C41.732 11.3396 42.4343 12.0433 42.9015 12.8987H43.0047L43.4362 10.7505ZM38.3424 22.6454C40.622 22.6454 41.8884 20.0188 41.9259 17.758C41.9259 16.2477 41.3349 14.6998 39.5901 14.6998C37.2073 14.6998 35.9972 17.3546 35.9597 19.6341C35.9597 21.1726 36.5507 22.6454 38.2955 22.6454M104.9 23.152C104.9 24.1557 104.036 24.5591 102.901 24.5591C101.025 24.5591 100.397 23.621 100.387 22.3077H94.4869C94.3837 27.2045 98.7552 28.4146 102.639 28.4146C107.601 28.4146 110.819 26.2664 110.885 21.9794C110.885 18.5553 107.967 17.5141 105.097 16.848C102.892 16.3415 101.926 15.9756 101.935 15.1407C101.945 14.3058 102.93 13.9681 103.896 13.9681C105.106 13.9681 105.931 14.3996 106.016 15.5066H111.748C111.682 11.4165 107.995 10.2158 104.243 10.2158C99.6839 10.2158 96.1285 12.2889 96.0722 16.2101C96.0722 19.2964 98.1548 20.4315 101.297 21.2383C103.314 21.773 104.918 21.9418 104.9 23.152ZM148.736 13.2927H148.633C148.378 12.3689 147.814 11.5602 147.036 11.0005C146.258 10.4409 145.312 10.164 144.355 10.2158C141.804 10.2158 140.247 11.4822 138.774 13.3959H138.671L139.215 10.7505H133.248L129.674 27.8424H135.913L137.789 18.621C138.22 16.6135 139.243 15.2064 140.791 15.2064C142.339 15.2064 142.545 16.4446 142.226 17.955L140.162 27.8424H146.4L148.277 18.621C148.708 16.4822 149.731 15.2064 151.278 15.2064C152.826 15.2064 153.033 16.379 152.714 17.955L150.65 27.8424H156.888L159.121 17.6829C160.059 13.3959 158.624 10.1782 154.506 10.1782C153.36 10.1735 152.232 10.4561 151.224 11.0002C150.216 11.5443 149.361 12.3325 148.736 13.2927ZM1.64453 27.8424H8.08918L13.0704 3.8743H6.63515L1.64453 27.8424ZM21.0441 10.2439C25.3968 10.2439 29.5526 12.6266 29.4869 18.0206C29.4306 23.9212 25.4156 28.3396 19.2805 28.3396C15.0591 28.3396 10.8378 25.9944 10.9128 20.6285C11.016 14.8687 14.9747 10.2439 21.0441 10.2439ZM19.4588 24.1557C22.2074 24.1557 23.2111 20.1688 23.2111 17.8236C23.2111 16.1445 22.6952 14.5028 20.8846 14.5028C18.1642 14.5028 17.2355 18.7242 17.2355 20.9006C17.2355 22.6454 17.7233 24.1557 19.4963 24.1557M15.2186 3.8743L14.2805 8.66792H68.3987L69.3368 3.8743H15.2186ZM58.7458 10.2439C63.0985 10.2439 67.2542 12.6266 67.1886 18.0206C67.1323 23.9212 63.1079 28.3396 56.9728 28.3396C52.7514 28.3396 48.53 25.9944 48.6145 20.6285C48.7458 14.8687 52.7045 10.2439 58.7458 10.2439ZM57.1886 24.1557C59.9372 24.1557 60.9409 20.1688 60.9409 17.8236C60.9409 16.1445 60.4156 14.5028 58.6051 14.5028C55.894 14.5028 54.9559 18.7242 54.9559 20.9006C54.9559 22.6454 55.4437 24.1557 57.2261 24.1557M71.5507 3.8743L70.6126 8.66792H76.8415L77.7796 3.8743H71.5507ZM66.5601 27.8424H72.7983L76.3724 10.7505H70.0966L66.5601 27.8424ZM86.4662 28.4146C85.4734 28.4851 84.4805 28.2776 83.5989 27.8153C82.7174 27.353 81.9821 26.6542 81.4756 25.7974H81.3724L79.4963 34.4465H73.1829L78.2486 10.7505H84.1773L83.7083 13.03C84.3274 12.188 85.1294 11.4973 86.0539 11.0098C86.9784 10.5224 88.0014 10.2509 89.046 10.2158C92.7983 10.2158 95.0028 13.4334 94.9372 17.6173C94.8527 22.8799 92.1229 28.4146 86.4287 28.4146H86.4662ZM86.2223 15.0563C83.8115 15.0563 82.3293 18.1426 82.2918 20.516C82.2918 22.167 82.8734 24.0056 84.8527 24.0056C87.4325 24.0056 88.4925 20.591 88.5206 18.3114C88.5206 16.7636 88.0704 15.0563 86.2223 15.0563ZM122.292 25.1501H122.395L121.851 27.8612H127.779L131.354 10.7692H125.125L123.136 20.3189C122.733 22.2983 121.513 23.3396 119.975 23.3396C118.436 23.3396 118.098 21.8949 118.408 20.3846L120.425 10.7692H114.196L111.991 21.3227C111.053 25.9193 113.192 28.3959 116.776 28.3959C117.901 28.3849 119.004 28.0774 119.972 27.5042C120.94 26.931 121.741 26.1125 122.292 25.1313V25.1501ZM155.753 34.531L156.691 29.7373H82.7139L81.7758 34.531H155.753Z" fill="white"/>
<path d="M162.46 15.4409C162.399 15.4362 162.339 15.4193 162.284 15.3912C162.228 15.3632 162.179 15.3245 162.139 15.2774C162.099 15.2303 162.069 15.1758 162.05 15.1169C162.031 15.058 162.024 14.996 162.029 14.9343C162.107 14.0989 162.008 13.2563 161.738 12.4619C161.468 11.6675 161.033 10.939 160.461 10.3244C159.89 9.70976 159.195 9.22274 158.423 8.89524C157.65 8.56775 156.817 8.40717 155.978 8.42403C155.854 8.42403 155.735 8.37462 155.647 8.28665C155.559 8.19869 155.509 8.07938 155.509 7.95498C155.509 7.83058 155.559 7.71129 155.647 7.62333C155.735 7.53536 155.854 7.48594 155.978 7.48594C156.203 7.50048 156.429 7.50048 156.654 7.48594C158.32 7.30843 159.872 6.55564 161.043 5.35711C162.215 4.15858 162.931 2.58928 163.07 0.919337C163.08 0.801554 163.133 0.691688 163.22 0.611685C163.307 0.531683 163.421 0.487447 163.539 0.487826C163.601 0.492561 163.661 0.509449 163.716 0.53751C163.771 0.565571 163.82 0.604254 163.86 0.651335C163.901 0.698417 163.931 0.752963 163.95 0.811839C163.969 0.870715 163.976 0.932751 163.971 0.994386C163.893 1.82905 163.992 2.6708 164.261 3.46458C164.531 4.25835 164.965 4.98628 165.535 5.60078C166.106 6.21527 166.799 6.70249 167.57 7.03058C168.342 7.35867 169.174 7.52023 170.012 7.5047C170.136 7.5047 170.256 7.55413 170.344 7.64209C170.432 7.73005 170.481 7.84935 170.481 7.97375C170.481 8.09815 170.432 8.21746 170.344 8.30542C170.256 8.39338 170.136 8.44279 170.012 8.44279C168.23 8.47223 166.521 9.15877 165.214 10.3707C163.907 11.5826 163.093 13.2345 162.93 15.0094C162.92 15.1272 162.867 15.2371 162.78 15.3171C162.693 15.3971 162.579 15.4413 162.46 15.4409Z" fill="white"/>
</g>
<defs>
<clipPath id="clip0_27_746">
<rect width="175" height="40" fill="white" transform="translate(0.5)"/>
</clipPath>
</defs>
</svg>
